<?xml version="1.0" encoding="UTF-8"?> <!-- Generator: Adobe Illustrator 23.0.2, SVG Export Plug-In . SVG Version: 6.00 Build 0) --> <svg xmlns="http://www.w3.org/2000/svg" xmlns:xlink="http://www.w3.org/1999/xlink" id="Layer_1" x="0px" y="0px" viewBox="0 0 1006.9 416.8" style="enable-background:new 0 0 1006.9 416.8;" xml:space="preserve"> <style type="text/css"> .st0{fill:#DEDFE0;} </style> <g> <path class="st0" d="M158.1,314.5c-32.1,0-58-26-58-58c0-32,26-58,58-58c32.1,0,58,26,58,58C216.1,288.6,190.2,314.5,158.1,314.5 M158.1,140.4C94,140.4,42,192.4,42,256.5c0,64.1,52,116.1,116.1,116.1c64.1,0,116.1-52,116.1-116.1 C274.2,192.4,222.2,140.4,158.1,140.4"></path> <path class="st0" d="M361.9,295.4c0-9.2,11.1-13.7,17.6-7.2c28.9,29.6,77,80.3,77.3,80.5c0.7,0.7,1.3,1.8,4.2,2.7 c1.2,0.4,3.1,0.5,5,0.5l52.4,0c9.4,0,12.3-10.9,7.8-16.4l-86.7-88.9l-4.5-4.7c-9.9-11.8-8.8-16.4,2.5-28.3l68.9-76.6 c4.5-5.5,1.6-16.2-8.1-16.2h-47.4c-1.9,0-3.3,0-4.5,0.4c-2.8,0.8-3.9,2-4.6,2.7c-0.3,0.3-38.3,41.3-61.8,66.5 c-6.4,6.9-17.9,2.4-17.9-7.1l0-131.6c0-6.7-5.5-9.2-10-9.2h-38.8c-6.7,0-10,4.5-10,8.4V363c0,6.7,5.6,8.6,10.1,8.6H352 c6,0,9.9-4.3,9.9-8.8v-3V295.4z"></path> <path class="st0" d="M678.6,361.5l-4.2-38.9c-0.6-5.3-5.5-9-10.8-8.2c-2.9,0.5-5.9,0.7-9,0.7c-31,0-56.2-24.3-57.8-54.9 c0-1,0.1-2.1,0.1-3.1v-47.4c0-6.2,4.6-11.2,10.8-11.2l51.9,0c3.8,0,9.1-3.1,9.1-10v-36.8c0-7-4.6-10.9-8.7-10.9h-52.3 c-6,0-10.9-4.4-11-10.5l-0.1-58.7c0-3.6-2.7-9.2-10-9.2h-38.6c-4.9,0-9.5,3-9.5,8.9c0,0,0,187.9,0,189 c1.7,62.7,53.1,112.9,116.1,112.9c5.3,0,10.4-0.4,15.5-1.1C675.5,371.5,679.2,366.7,678.6,361.5"></path> <path class="st0" d="M804.2,314.5c-32.1,0-58-26-58-58c0-32.1,26-58,58-58c32,0,58,26,58,58C862.3,288.5,836.3,314.5,804.2,314.5 M958.2,312.8c-32.9,0-37.8-11.7-37.9-55.9c0-0.1,0-0.3,0-0.4l-0.1-105.8c0-3.6-2.7-9.8-10.1-9.8h-38.7c-4.9,0-10.1,3.9-10.1,9.8 l0,4.9c-16.9-9.6-36.4-15.1-57.2-15.1c-64.1,0-116.1,51.9-116.1,116c0,64.1,52,116.1,116.1,116.1c28.8,0,55.1-10.5,75.4-27.9 c10.9,16.6,28.5,27.7,55.9,27.9c4.7,0,29.5,0.8,29.5-10.8v-41.3C964.9,316.7,962,312.8,958.2,312.8"></path> </g> </svg> 